<?xml version="1.0" encoding="UTF-8"?><svg id="Layer_1" xmlns="http://www.w3.org/2000/svg" viewBox="0 0 1000 317.67"><defs><style>.cls-1{fill:#7b853a;}</style></defs><g><polygon class="cls-1" points="367.48 274.83 389.91 274.83 378.69 253.58 367.48 274.83"/><path class="cls-1" d="M216.6,252.27c-12.46,0-20.53,6.23-20.53,17.38s8,17.38,20.53,17.38,20.46-6.23,20.46-17.38-8-17.38-20.46-17.38Z"/><path class="cls-1" d="M132.92,272.4h-23.67v13.64h23.67c6.89,0,11.02-1.64,11.02-6.83s-4.13-6.82-11.02-6.82Z"/><path class="cls-1" d="M141.58,259.62c0-5.05-4.13-6.37-10.29-6.37h-22.04v12.79h22.04c6.16,0,10.29-1.37,10.29-6.42Z"/><polygon class="cls-1" points="685.46 274.83 707.88 274.83 696.67 253.58 685.46 274.83"/><path class="cls-1" d="M20.04,221.59v96.08H969.37v-96.08H20.04Zm114.4,71.01h-32.92v-45.9h31.01c10.11,0,16.86,4.13,16.86,11.67,0,5.24-3.22,9.96-9.97,10.43,7.15,.46,12.59,3.73,12.59,11.21,0,8.27-6.75,12.59-17.58,12.59Zm82.16,1.38c-17.64,0-28.53-9.18-28.53-24.33s10.89-24.33,28.53-24.33,28.53,9.17,28.53,24.33-10.89,24.33-28.53,24.33Zm109.7-40.4h-20.92v39.02h-7.86v-39.02h-20.79v-6.88h49.58v6.88Zm72.99,39.02l-5.9-11.08h-29.44l-5.84,11.08h-8.53l24.86-45.9h8.65l24.79,45.9h-8.59Zm95.34,0h-6.96l-35.87-36.2v36.2h-7.61v-45.9h8.39l34.36,34.82v-34.82h7.68v45.9Zm50.47,0h-7.86v-45.9h7.86v45.9Zm67.44,1.38c-17.18,0-28.01-9.25-28.01-24.33s10.82-24.33,28.33-24.33c11.28,0,19.68,4.85,23.94,11.41l-7.34,3.67c-3.41-5.64-9.25-8.14-16.72-8.14-12.13,0-20.2,5.9-20.2,17.38s8.06,17.38,20.2,17.38c7.48,0,13.38-2.43,16.85-8.13l7.28,3.6c-4.33,6.69-12.73,11.48-24.33,11.48Zm104.72-1.38l-5.9-11.08h-29.44l-5.84,11.08h-8.53l24.86-45.9h8.65l24.79,45.9h-8.59Zm86.61,0h-41.71v-45.9h7.86v38.96h33.84v6.95Zm59.81,1.38c-10.75,0-20.26-3.15-27.41-9.32l4.92-5.57c6.23,5.57,13.57,8.06,22.82,8.06,10.24,0,15.87-2.69,15.87-7.48s-5.77-5.97-17.31-6.95c-12.66-1.05-24.6-3.87-24.6-13.25s10.56-14.16,23.74-14.16c9.96,0,18.43,2.95,23.94,7.61l-4.99,5.38c-4.72-4.13-11.22-6.1-18.82-6.17-7.28-.06-15.94,1.7-15.94,6.82s7.67,5.71,17.71,6.5c14.3,1.11,24.27,4,24.27,13.57,0,8.72-8.59,14.96-24.2,14.96Z"/></g><g><g><path class="cls-1" d="M23.57,68.1c0-7.49-1.22-13.04-3.67-16.64-2.45-3.6-7.33-5.4-14.67-5.4H0v-4.41H68.1c19.03,0,35.85,.84,49.51,7.08,16.74,7.65,21.36,19.48,21.21,31.49-.08,6.91-4.09,14.25-8.38,18.73-5.46,5.71-14.14,9.99-25.67,13.23,16.06,2.2,27.28,6.21,33.66,12.01,6.37,5.8,9.56,13.56,9.56,23.25,0,14.84-6.94,25.16-20.82,30.97-13.88,5.8-30.95,8.71-51.21,8.71H23.57V68.1Zm48.46,49.59c-7.21,0-14.11-2.93-19.12-8.12l-.67-.69h19.78c7.16,0,13.92-1.14,20.3-3.42,6.37-2.28,11.57-5.66,15.59-10.14,4.01-4.48,6.02-9.88,6.02-16.2s-2.36-12.16-7.07-16.64c-4.72-4.48-10.7-7.79-17.94-9.92-7.25-2.13-14.63-3.2-22.13-3.2-6.11,0-12.66,.74-19.64,2.21v124.75c8.38,2.06,16.67,3.09,24.88,3.09,15.89,0,28.16-2.64,36.8-7.94,8.64-5.29,12.97-12.93,12.97-22.92,0-6.21-1.7-12.29-5.74-17.01-7.9-9.24-22.57-13.85-44.03-13.85h0Z"/><path class="cls-1" d="M362.77,71.41v115.71h-10.48V68.1c0-7.06-1.79-12.49-5.37-16.31-3.58-3.82-9.65-5.73-18.2-5.73h-2.62v-4.41h17.03c8.03,0,14.84,1.1,20.43,3.31,5.59,2.21,10.56,5.51,14.93,9.92l91.67,95.88V41.65h10.48V189.33h-5.24l-112.63-117.92Z"/><path class="cls-1" d="M849.94,71.41v115.71h-10.48V68.1c0-7.06-1.79-12.49-5.37-16.31-3.58-3.82-9.65-5.73-18.2-5.73h-2.62v-4.41h17.02c8.03,0,14.84,1.1,20.43,3.31,5.59,2.21,10.56,5.51,14.93,9.92l91.67,95.88V41.65h10.48V189.33h-5.24l-112.63-117.92Z"/><path class="cls-1" d="M314.05,177.1c-3.84-3.16-7.95-9-12.31-17.52l-57.62-117.92h-7.86l-73.34,145.47h11.78l17.75-35.46c.62-1.25,1.36-2.46,2.3-3.48,8.79-9.65,20.53-9.04,33.29-4.74,1.12,.37,2.34,.88,3.69,1.43,4.51,1.84,9.94,4.81,17.82,5.23,10.41,0,14.01-3.81,14.26-4.22v-.06c-2.35-.5-5.52-1.27-9.83-2.41-4.47-1.18-12.27-4.23-15.77-5.63-1.09-.41-2.13-.82-3.1-1.22-1.54-.63-2.93-1.19-4.21-1.62-9.19-3.1-19.86-5.07-29.72-1.62l31.15-60.81,43.22,87.06c4.89,11.32,11.43,18.92,19.64,22.81,8.21,3.89,16.5,5.84,24.88,5.84,3.84,0,7.33-.37,10.48-1.1v-4.41c-7.16-.58-12.66-2.46-16.5-5.62Z"/><path class="cls-1" d="M800.46,177.1c-3.84-3.16-7.95-9-12.31-17.52l-57.62-117.92h-7.86l-73.34,145.47h11.78l17.75-35.46c.62-1.25,1.36-2.46,2.3-3.48,8.79-9.65,20.53-9.04,33.29-4.74,1.12,.37,2.34,.88,3.69,1.43,4.51,1.84,9.94,4.81,17.82,5.23,10.41,0,14.01-3.81,14.26-4.22v-.06c-2.35-.5-5.52-1.27-9.83-2.41-4.47-1.18-12.27-4.23-15.77-5.63-1.09-.41-2.13-.82-3.1-1.22-1.54-.63-2.93-1.19-4.21-1.62-9.19-3.1-19.86-5.07-29.72-1.62l31.15-60.81,43.22,87.06c4.89,11.32,11.43,18.92,19.64,22.81,8.21,3.89,16.5,5.84,24.88,5.84,3.84,0,7.33-.37,10.48-1.1v-4.41c-7.16-.58-12.66-2.46-16.5-5.62Z"/><path class="cls-1" d="M607.49,86.93l-5.64,10.99c-.83,1.64-1.67,3.3-2.52,4.98h0s-5.39,10.71-5.39,10.71c2.5-19.64-2.69-45.14-19.49-65.23-27.89-33.33-68.79-38.99-68.79-38.99,12.71,33.58,20.57,56.75,40.39,69.37,17.68,11.26,34.09,18.3,38.2,33.34,6-35.13-26.51-61.55-48.46-80.12,60.67,40.33,60.31,71.91,45.09,107.51l-12.77,25.32c-3.44,6.05-7.31,11.02-10.42,13.57-3.84,3.16-9.34,5.03-16.5,5.62v4.41c2.96,.69,6.26,1.03,9.84,1.07,12.7,.05,18.81-8.15,21.25-11.87,1.69-2.58,5.21-9.22,7.25-13.14l21-41.24s27.81-56.16,58.67-89.96c0,0-22.96,32.43-40.94,68.22,4.14-3.41,8.55-6.52,13.41-8.95,49.33-24.64,45.88-68.5,65.14-92.56-47.82,16.66-67.26,44.53-89.34,86.93Z"/></g><g><path class="cls-1" d="M982.5,45.85s2.51-.26,4.43-.26c4.52,0,6.52,.84,6.52,3.61,0,2.02-1.68,3.39-3.92,3.88,1.73,1.98,3.43,3.96,5.15,5.96h-3.62l-4.22-5.68v-1.08s.21,.02,.47,.02c2.28,0,3.17-1.27,3.17-2.84,0-1.84-1.41-2.54-3.34-2.54-.83,0-1.62,.22-1.62,.22v11.91h-3.02v-13.19Z"/><path class="cls-1" d="M987.75,65.02c-6.76,0-12.25-5.5-12.25-12.25s5.5-12.25,12.25-12.25,12.25,5.5,12.25,12.25-5.5,12.25-12.25,12.25Zm0-22.24c-5.5,0-9.98,4.48-9.98,9.98s4.48,9.98,9.98,9.98,9.98-4.48,9.98-9.98-4.48-9.98-9.98-9.98Z"/></g></g></svg>