<?xml version="1.0" encoding="UTF-8"?><svg id="Layer_1" xmlns="http://www.w3.org/2000/svg" viewBox="0 0 200 200"><defs><style>.cls-1{fill:#fff9f1;}.cls-2{fill:#fff9f0;}.cls-3{fill:#7b853a;}</style></defs><circle class="cls-3" cx="100" cy="100" r="100"/><g id="Y-Logomark_White"><path class="cls-2" d="m105.65,99.82l-2.49,4.85c-.37.72-.74,1.46-1.11,2.2h0l-2.38,4.72c1.1-8.66-1.19-19.91-8.6-28.77-12.3-14.7-30.34-17.2-30.34-17.2,5.61,14.81,9.07,25.03,17.82,30.6,7.8,4.96,15.04,8.07,16.85,14.7,2.64-15.49-11.69-27.15-21.37-35.34,26.76,17.79,26.6,31.72,19.89,47.42l-5.63,11.17c-1.52,2.67-3.23,4.86-4.6,5.99-1.69,1.39-4.12,2.22-7.28,2.48v1.94c1.31.31,2.76.45,4.34.47,5.6.02,8.3-3.6,9.37-5.23.75-1.14,2.3-4.06,3.2-5.79l9.26-18.19s12.27-24.77,25.88-39.68c0,0-10.13,14.31-18.06,30.09,1.83-1.5,3.77-2.88,5.91-3.95,21.76-10.87,20.24-30.21,28.73-40.83-21.09,7.35-29.67,19.64-39.4,38.34h.01Z"/></g><path class="cls-1" d="m181.52,74.22c-.24-.31-.62-.46-1.02-.41l-8.67,1.26c-10.87-32.55-42.94-53.76-77.37-50.73-8.16.72-16.09,2.76-23.59,6.07-.85.38-1.48,1.11-1.73,2-.24.87-.08,1.8.44,2.54l.2.29h.04c.87.96,2.29,1.27,3.51.73,6.86-3.03,14.15-4.91,21.66-5.56,31.26-2.73,60.38,16.26,70.69,45.56l-7.48,1.08c-.39.06-.71.31-.86.68-.15.36-.09.78.16,1.08l13.94,17.68c.21.27.53.42.86.42.05,0,.1,0,.16-.01.39-.06.71-.31.86-.68l8.35-20.91c.15-.36.09-.78-.16-1.08Z"/><path class="cls-1" d="m174.2,105.81c-.64-.65-1.52-.97-2.43-.88l-.62.06v.08c-1.14.36-2,1.39-2.12,2.62-.75,7.45-2.72,14.71-5.86,21.58-13.05,28.53-43.94,44.47-74.51,38.98l2.74-7.03c.14-.37.08-.78-.17-1.08-.24-.3-.63-.46-1.02-.4l-22.25,3.41c-.39.06-.71.32-.85.68-.14.36-.08.78.17,1.08l14.06,17.57c.21.26.53.41.85.41.05,0,.11,0,.17-.01.39-.06.71-.32.85-.68l3.19-8.17c4.77.94,9.56,1.4,14.3,1.4,28.69,0,55.68-16.66,68-43.64,3.41-7.45,5.55-15.36,6.37-23.5.09-.92-.23-1.83-.88-2.48Z"/><path class="cls-1" d="m51.76,61.09c.21.27.53.42.86.42.05,0,.1,0,.16-.01.39-.06.72-.31.86-.68l8.37-20.9c.15-.36.09-.78-.16-1.08-.24-.31-.63-.46-1.02-.41l-22.28,3.19c-.39.06-.72.31-.86.68-.15.36-.09.78.15,1.08l5.41,6.88c-22.79,25.65-25.19,64.01-5.4,92.35,4.7,6.72,10.42,12.58,17.01,17.42.54.4,1.17.6,1.82.6.26,0,.51-.03.77-.1.58-.15,1.1-.46,1.49-.9l.11.11.4-.86c.61-1.31.2-2.89-.98-3.75-6.05-4.43-11.3-9.82-15.62-16.01-17.96-25.72-16.01-60.43,4.24-83.99l4.67,5.94Z"/></svg>