<?xml version="1.0" encoding="utf-8"?>
<!-- Generator: Adobe Illustrator 27.3.1, SVG Export Plug-In . SVG Version: 6.00 Build 0)  -->
<svg version="1.1" id="Layer_1" xmlns="http://www.w3.org/2000/svg" xmlns:xlink="http://www.w3.org/1999/xlink" x="0px" y="0px"
	 viewBox="0 0 200.3 200.4" style="enable-background:new 0 0 200.3 200.4;" xml:space="preserve">
<style type="text/css">
	.st0{fill:#78853C;}
	.st1{fill:#FFF9F1;}
	.st2{fill:#B6BE17;}
	.st3{clip-path:url(#SVGID_00000024722847068006069580000014903826333803503494_);}
	.st4{clip-path:url(#SVGID_00000130609768597983380670000002382700979921836417_);}
	.st5{clip-path:url(#SVGID_00000043415981722581188270000008789289244276587409_);}
	.st6{clip-path:url(#SVGID_00000099622612090520424320000017089401869134573444_);}
	.st7{clip-path:url(#SVGID_00000138549088439278419420000010200172280145858463_);}
</style>
<circle class="st0" cx="100.3" cy="100" r="100"/>
<g id="Certified_Organic_BW">
	<circle class="st1" cx="100.3" cy="100" r="84.8"/>
	<path class="st1" d="M100.3,186.2c-47.4,0-86.2-38.8-86.2-86.2s38.8-86.2,86.2-86.2s86.2,38.6,86.2,86.2S147.7,186.2,100.3,186.2
		L100.3,186.2z M100.3,16.6c-46,0-83.4,37.4-83.4,83.4s37.4,83.4,83.4,83.4s83.4-37.4,83.4-83.4S146.3,16.6,100.3,16.6z"/>
	<path class="st2" d="M176.5,100c0,42.2-34.1,76.2-76.2,76.2s-76.2-34-76.2-76.2H176.5z"/>
	<g>
		<g>
			<g>
				<defs>
					<path id="SVGID_1_" d="M176.5,100c0,42.2-34.1,76.2-76.2,76.2s-76.2-34-76.2-76.2H176.5z"/>
				</defs>
				<clipPath id="SVGID_00000006694097488918469970000006835629629764488085_">
					<use xlink:href="#SVGID_1_"  style="overflow:visible;"/>
				</clipPath>
				<g style="clip-path:url(#SVGID_00000006694097488918469970000006835629629764488085_);">
					<polygon class="st0" points="176.5,100 20.5,100 26.7,125 					"/>
				</g>
			</g>
		</g>
	</g>
	<g>
		<g>
			<g>
				<defs>
					<path id="SVGID_00000051385464336318745340000015218018084855316148_" d="M176.5,100c0,42.2-34.1,76.2-76.2,76.2
						s-76.2-34-76.2-76.2H176.5z"/>
				</defs>
				<clipPath id="SVGID_00000074443388963992897680000011872722122182385062_">
					<use xlink:href="#SVGID_00000051385464336318745340000015218018084855316148_"  style="overflow:visible;"/>
				</clipPath>
				<g style="clip-path:url(#SVGID_00000074443388963992897680000011872722122182385062_);">
					<polygon class="st0" points="176.5,100 28.1,128.8 41,151.7 					"/>
				</g>
			</g>
		</g>
	</g>
	<g>
		<g>
			<g>
				<defs>
					<path id="SVGID_00000011732710528849565870000010420045985705799317_" d="M176.5,100c0,42.2-34.1,76.2-76.2,76.2
						s-76.2-34-76.2-76.2H176.5z"/>
				</defs>
				<clipPath id="SVGID_00000016063248606439651160000005326690589966277262_">
					<use xlink:href="#SVGID_00000011732710528849565870000010420045985705799317_"  style="overflow:visible;"/>
				</clipPath>
				<g style="clip-path:url(#SVGID_00000016063248606439651160000005326690589966277262_);">
					<polygon class="st0" points="176.5,100 44.8,154.3 68.2,171.7 					"/>
				</g>
			</g>
		</g>
	</g>
	<g>
		<g>
			<g>
				<defs>
					<path id="SVGID_00000069377932468583177030000005114191396400863658_" d="M176.5,100c0,42.2-34.1,76.2-76.2,76.2
						s-76.2-34-76.2-76.2H176.5z"/>
				</defs>
				<clipPath id="SVGID_00000000223427152968089000000004470208423382976423_">
					<use xlink:href="#SVGID_00000069377932468583177030000005114191396400863658_"  style="overflow:visible;"/>
				</clipPath>
				<g style="clip-path:url(#SVGID_00000000223427152968089000000004470208423382976423_);">
					<polygon class="st0" points="176.5,100 72.9,173.4 105.6,181 					"/>
				</g>
			</g>
		</g>
	</g>
	<g>
		<g>
			<g>
				<defs>
					<path id="SVGID_00000158711248377081865930000014540808422362732979_" d="M176.5,100c0,42.2-34.1,76.2-76.2,76.2
						s-76.2-34-76.2-76.2H176.5z"/>
				</defs>
				<clipPath id="SVGID_00000180337205760956711250000014467552478850719386_">
					<use xlink:href="#SVGID_00000158711248377081865930000014540808422362732979_"  style="overflow:visible;"/>
				</clipPath>
				<g style="clip-path:url(#SVGID_00000180337205760956711250000014467552478850719386_);">
					<polygon class="st0" points="176.5,100 113.7,177.9 173.7,177.4 					"/>
				</g>
			</g>
		</g>
	</g>
	<path class="st0" d="M54.8,57.8h7.6v24.8c0,1.7,0.5,2.9,2.6,2.9c1.9,0,2.6-1.7,2.6-3.1V57.8h7.6v23.8c0,5.5-2.6,10-10.5,10
		c-6.4,0-10.5-3.1-10.5-10V57.8C54.3,57.8,54.8,57.8,54.8,57.8z"/>
	<path class="st0" d="M85.3,79.8v2.4c0,1.9,0.7,3.6,3.1,3.6c1.9,0,2.6-1.7,2.6-3.3c0-2.9-2.4-3.8-4.3-5c-2.4-1.4-4.3-2.6-5.9-4.3
		c-1.4-1.7-2.1-3.8-2.1-6.7c0-6.2,3.8-9.3,9.8-9.3c6.7,0,10.2,4.5,9.8,10.7H91c0-1.9,0-4.5-2.6-4.8c-1.7-0.2-2.6,0.7-2.6,2.1
		c-0.2,1.9,0.7,3.1,2.4,4.1c2.9,1.9,5.5,3.1,7.2,4.8c1.9,1.7,2.9,3.8,2.9,7.9c0,6.4-3.6,9.8-10,9.8c-7.2,0-10-4.1-10-8.3v-3.6
		L85.3,79.8L85.3,79.8z"/>
	<path class="st0" d="M109.1,63.6c3.8,0,5,0.2,5,4.3v10.7c0.2,4.3,0,6.4-5,6.2V63.6z M111.8,91c2.4,0,4.8-0.6,6.9-1.8
		c2.1-1.4,3.3-3.8,3.3-7.2V67.6c0-3.1-0.5-6.4-3.6-8.1c-2.6-1.4-5.9-1.4-8.8-1.4h-8.3V91H111.8L111.8,91L111.8,91z"/>
	<path class="st0" d="M138.2,78.6h-4.5l2.1-14.8l0,0L138.2,78.6L138.2,78.6z M132,90.7l0.9-6.4h5.9l1.2,6.4h7.9l-7.1-32.9h-9.3
		l-7.2,32.9H132L132,90.7z"/>
	<path class="st1" d="M52.4,127.2c0,1.4-0.4,3.6-2.1,3.6c-1.9,0-2.1-2.1-2.1-3.6V117c0-1.4,0.2-3.3,2.1-3.3s2.1,1.9,2.1,3.3V127.2
		L52.4,127.2L52.4,127.2z M58.2,116.7c0-4.8-2.6-7.4-7.9-7.4s-7.9,2.6-7.9,7.4v10c0,5.5,2.1,8.6,7.9,8.6s7.9-2.9,7.9-8.6V116.7z"/>
	<path class="st1" d="M66.5,114.3c2.9,0,4.1,0,4.1,3.1c0,1.4-0.5,3.1-2.1,3.1h-1.9L66.5,114.3L66.5,114.3z M66.5,125h1.9
		c1.4,0,1.9,1.2,1.9,2.6c0.2,1.4,0,3.6,0.2,5.7c0,0.5,0.2,0.9,0.2,1.4h6.4v-0.2c-0.2-0.2-0.5-0.5-0.5-0.9c-0.2-1.7-0.5-5.7-0.5-7.9
		c0-1.7-1.2-2.9-2.9-3.1l0,0c2.4-1.2,3.1-3.1,3.1-5.7c0-5-2.4-6.9-7.2-6.9h-8.6v24.8h5.7L66.5,125L66.5,125z"/>
	<path class="st1" d="M90.6,134.8l-0.2-2.1l0,0c-1.2,2.1-2.6,2.9-5,2.9c-5,0-6.4-3.3-6.4-7.9v-10.2c0-5.5,2.4-7.9,7.9-7.9
		c5,0,7.9,2.1,7.9,7.2v1.9h-5.7v-1.4c0-2.1-0.2-3.1-1.9-3.1c-1.9,0-2.1,0.9-2.1,2.6v11.9c0,1.4,0.7,2.1,2.1,2.1
		c1.9,0,2.1-1.7,2.1-3.1v-1.9H87v-4.5h7.9v13.3h-4.3V134.8L90.6,134.8z"/>
	<path class="st1" d="M106.8,125.5h-3.3l1.7-11.2l0,0L106.8,125.5L106.8,125.5z M102.2,134.5l0.7-4.8h4.5l0.7,4.8h5.9l-5.5-24.8
		h-6.9l-5.5,24.8H102.2L102.2,134.5z"/>
	<path class="st1" d="M120.8,120.7L120.8,120.7l0.5,13.8h-5.5V110h5.9l4.5,13.8l0,0l-0.5-13.8h5.5v24.8h-5.9L120.8,120.7
		L120.8,120.7z"/>
	<path class="st1" d="M134.4,134.5V110h5.7v24.8h-5.7V134.5z"/>
	<path class="st1" d="M153,118.6v-1.7c0-2.1-0.7-3.1-1.9-3.1c-1.9,0-2.1,0.9-2.1,2.6v12.1c0,1.4,0.5,2.1,2.1,2.1
		c1.9,0,2.1-2.1,2.1-3.6v-2h5.7v3.1c0,4.3-2.4,7.1-8.3,7.1c-5.2,0-7.4-2.9-7.4-7.9v-10.2c0-5.5,2.4-7.9,7.9-7.9c5,0,7.9,2.1,7.9,7.2
		v2.1L153,118.6L153,118.6z"/>
</g>
</svg>
